<?xml version="1.0" encoding="UTF-8"?>
<svg xmlns="http://www.w3.org/2000/svg" version="1.1" viewBox="0 0 120.5 127.7">
  <defs>
    <style>
      .cls-1, .cls-2 {
        fill: #f5b2b4;
      }

      .cls-3 {
        fill: none;
        stroke: #000;
        stroke-linecap: round;
        stroke-width: 2px;
      }

      .cls-3, .cls-2, .cls-4 {
        stroke-miterlimit: 10;
      }

      .cls-5 {
        fill: #e5f1eb;
      }

      .cls-2 {
        stroke: #f5b2b4;
      }

      .cls-6 {
        fill: #d85b5b;
      }

      .cls-4 {
        fill: #fff;
        stroke: #fff;
      }
    </style>
  </defs>
  <!-- Generator: Adobe Illustrator 28.6.0, SVG Export Plug-In . SVG Version: 1.2.0 Build 709)  -->
  <g>
    <g id="Laag_1">
      <g id="Laag_1-2" data-name="Laag_1">
        <circle class="cls-5" cx="60.2" cy="79.9" r="47.8"/>
        <path class="cls-4" d="M37.3,117.1s22.8,18.7,47.8,1.8c5-5.6,11.2-35.4,13.9-35.4s-1.8-10.7-10.9-14.8c-1.4-7.2-.9-15-15.9-10.2-7.3-2.6-11.6-6.3-17.7-4.7s-6.7,6.5-10.4,7.4-6.9-4-11.9,4.1-2.6,23.3-2.3,28.6,5.8,22.1,6.6,22.7l.8.6h0Z"/>
        <path class="cls-3" d="M34.2,113.6s-16.1-55.6,8.4-52.6c.9,0,1.8,0,2.6-.4,4.9-2.9,10.2-12.8,24-2.9.9.7,2.2,1,3.3.8,7.4-1.1,13.3-5.2,15,8.3,0,1,.7,1.8,1.6,2.3,8.9,5.2,11.1,9.8,10.2,14.4-1,4.9-10.1,27.1-9.1,33.6"/>
        <path class="cls-2" d="M42.3,67.6c-2.7-.7-5.9,1.4-6.8,4.3-1,3.5,1.4,7.7,4.6,8,2.3.2,4.3-1.6,5.2-3.4,1.5-3.2.2-8-3.1-8.9h0Z"/>
        <path class="cls-2" d="M57.1,59.9c-2.2.5-4.5,3.3-4,6.1.5,3,3.5,4.3,5.5,4.6,2.1.3,5-.3,5.8-2.2,1.3-3.1-3.4-9.4-7.4-8.6h0Z"/>
        <path class="cls-2" d="M79.2,64.5c-2.1-.6-4.9,1-6.1,3.4-1.3,2.5-.8,5.8,1.5,7.7,2,1.6,5.1,1.7,6.8.3,3.1-2.6,1.5-10.3-2.2-11.4h0Z"/>
        <path class="cls-2" d="M90.2,79.9c-1.2-.6-4.2,1.6-4.9,4.6-.8,3.6,2,7,3.4,6.8,2.3-.3,3.7-10.3,1.5-11.4h0Z"/>
        <path class="cls-1" d="M48.2,82.9c-7,4.1-8.3,5.3-9.2,7.1-1.5,2.8-2.5,7.7-.3,11.1,3.5,5.3,11.5,1,26.1,5.2,9.5,2.8,12.1,6.4,15.1,4.6,4.8-2.9,4.2-16-1.8-24.6-.4-.6-7.7-10.7-17.2-9.8-1.8.2-5.4,2.3-12.6,6.4h0Z"/>
        <path class="cls-6" d="M6.1,26.4c-.3,0-.7-.2-.9-.5-.2-.3-.3-.7-.5-1.1-.6-1.6-3.3-11.5-3.7-13.2-.2-.8-.9-2.5-.2-3.1.3-.3.8-.4,1.2-.5.4,0,.8-.2,1.2,0,.2,0,.3.2.4.4,0,.3.2.6.3,1,.6-.7,1.2-1.4,2.1-1.8.9-.5,2.2-.9,3.2-.8.8,0,1.6.2,2.2.6,1,.5,1.8,1.2,2.3,2.1,1.7,2.5,2.5,5.6,2.4,8.6,0,.8,0,1.5-.3,2.2-.2.8-.6,1.5-1,2.2-.6.9-1.5,1.7-2.5,2-1.3.5-2.9.4-4.3,0,0,.4.1.9,0,1.1-.3.4-1.4.7-1.9.7h0ZM12.7,23.2c1.2-.8,2.1-2.2,2.3-3.6.1-.6.1-1.2.1-1.8,0-1.9-.4-3.8-1.1-5.4-.5-1.2-1.1-2.3-2-3.3-.7-.7-1.7-1.3-2.8-1.3s-2.4.3-3.3,1c-.7.5-1.3,1.3-1.8,2.1,0,.5.8,3.5.9,4,.7,2.8,1.4,7.2,2.6,8.5.4.5,2,.5,3.1.5s1.3-.2,1.9-.6h.1Z"/>
        <path class="cls-6" d="M21.2,21.8c-.9-.4-1.6-1.2-2.2-2-1.1-1.9-1.5-4.3-1-6.5.3-1.2.9-2.4,1.9-3.2,1.1-.9,2.8-1.2,4.2-.8.6.2,1.2.6,1.7,1,.9.8,1.6,1.9,1.9,3.1.5,1.4.5,3,.2,4.5-.2.9-.5,1.9-1.2,2.6-.4.5-.9.9-1.5,1.2-1.2.5-2.9.6-4.1,0h.1ZM25.6,20.2c.5-.4.8-.9,1-1.4.4-.9.5-2,.5-2.9s-.4-2.4-.9-3.4c-.6-1.2-2.1-2.7-3.6-2.2-1.4.4-1.9,2.7-2,4,0,1.7.4,3.5,1.2,4.9.3.5.7,1,1.3,1.3.4.2.8.3,1.2.3s.9-.2,1.2-.5h0Z"/>
        <path class="cls-6" d="M31.4,20.5c-.2,0-.4-.2-.5-.4-.2-.3-.3-.7-.4-1.1-.5-2.4-.8-4.9-1-7.3,0-.5-.4-2.9-.4-3.4s.2-.5.4-.6c.5-.3,1.6-.5,2.1-.3.5.2.8.8.9,1.4.2,1,.2,2,.3,3,.2-.9.5-1.9,1.1-2.8.5-.8,1.2-1.5,2-2,.6-.4,1.3-.6,2-.6s1.3.2,1.8.5c.8.5,1.4,1.3,1.7,2.1.3.9.4,1.9.5,2.9.2,1.9.4,3.7.3,5.6,0,.4,0,.8,0,1.1-.2,1-1.4,1.2-2.3.8-.2-.1-.4-.3-.6-.5-.2-.5-.2-1-.3-1.5v-2.2c0-1.5,0-3-.3-4.5,0-.5-.2-1.1-.4-1.6,0-.3-.3-.6-.6-.9-.2-.2-.6-.4-.9-.3-.4,0-.8.3-1.1.6-.6.6-1,1.4-1.3,2.2-.6,1.7-.8,3.5-1,5.2h0c.2,1.1.4,2.2.4,3.2s0,.6-.2.9c-.4.5-1.4.7-2,.5h-.1Z"/>
        <path class="cls-6" d="M46.8,18.7c-1.2-.6-2.3-1.7-2.8-2.9-.7-1.5-.8-3.3-.3-5,.7-2.3,3.1-4.2,5.7-4.5.8,0,1.6,0,2.3.2,3.1,1,4,4.6,2,6.9-.7.9-1.8,1.4-2.9,1.5-1.1.1-2.3.2-3.4,0,.3.9.9,1.8,1.6,2.4.5.4,1.2.6,1.8.7.7,0,1.4-.2,2-.6.2-.1.4-.2.5-.2.4,0,.4.6,0,.8-.2.2-1.4.7-1.7.8-1.6.4-3.5.4-5-.3v.2ZM50.7,14.1c.7-.1,1.5-.4,2-.9,1.3-1.2,1-3.6-.2-5-.5-.5-1.2-1.1-1.9-1.1s-1.3.4-1.8.8c-.5.5-.9,1.1-1.2,1.7-.6,1.3-.8,2.9-.6,4.3,1.2.3,2.4.3,3.6.1h.1Z"/>
        <path class="cls-6" d="M59,18.2c-1.2-.6-2.2-1.9-2.6-3.1-.6-1.6-.6-3.4,0-5,.8-2.2,3.3-4,6-4.1.8,0,1.6,0,2.3.4,3,1.2,3.7,4.8,1.6,7.1-.7.8-1.9,1.2-3,1.3-1.1,0-2.3,0-3.4-.2.2.9.8,1.9,1.5,2.5.5.4,1.1.7,1.8.8.7,0,1.4-.1,2-.4.2-.1.4-.2.6-.1.4.1.4.6,0,.8-.3.2-1.4.6-1.7.7-1.6.3-3.5.2-5-.6h0ZM63.2,13.9c.8,0,1.5-.3,2.1-.8,1.4-1.1,1.2-3.5.2-5-.4-.6-1.1-1.1-1.8-1.2-.6,0-1.3.3-1.8.7-.5.5-.9,1-1.3,1.6-.7,1.3-1,2.8-.9,4.3,1.1.4,2.4.5,3.5.4Z"/>
        <path class="cls-6" d="M69.1,18.4c-.3-.4-.3-.9-.3-1.4,0-2.5.2-5,.4-7.4,0-.5.2-2.9.3-3.4,0-.2.3-.4.5-.5.5-.2,1.6-.2,2.1,0,.3.2.4.4.5.7.2.7,0,1.5,0,2.2.5-.9,1.3-1.7,2.2-2.1.9-.4,2.1-.6,3.1-.3.6.2.5,1,0,1.1h-.3c-.8-.2-1.6,0-2.3.3-.8.4-1.5,1.2-1.9,2.1-.6,1.2-.9,2.5-1.1,3.7,0,.5-.2,3.5-.2,4s0,.8-.3,1.1c-.2.3-.5.5-.9.5-.6.1-1.3,0-1.7-.5h0Z"/>
        <path class="cls-6" d="M85.4,20c-.2-.1-.3-.3-.4-.5-.2-.4,0-.8,0-1.2.2-2.5.6-4.9,1-7.3,0-.5.4-2.9.6-3.4,0-.2.3-.4.5-.5.5-.2,1.7,0,2.1.2.4.3.5,1,.5,1.6,0,1-.3,2-.5,3,.5-.8,1.1-1.7,1.8-2.4.7-.6,1.5-1.2,2.5-1.4.7-.2,1.5-.2,2.2,0,.6.2,1.2.5,1.6,1,.6.7,1,1.6,1.1,2.5,0,.9,0,1.9-.3,2.9-.3,1.8-.7,3.7-1.3,5.5,0,.4-.2.7-.4,1.1-.5.9-1.7.8-2.4.1-.2-.2-.3-.4-.4-.6,0-.5,0-1,0-1.5,0-.7.4-1.4.6-2.2.3-1.5.7-2.9.9-4.4v-1.6c0-.3,0-.7-.3-1-.2-.3-.5-.5-.8-.6-.4,0-.9,0-1.2.3-.8.4-1.4,1.1-1.8,1.8-1,1.5-1.8,3.1-2.3,4.8h0c0,1.1-.2,2.2-.4,3.2,0,.3-.2.6-.5.8-.5.4-1.5.3-2.1,0h0l-.3-.2Z"/>
        <path class="cls-6" d="M106.8,24c-.2-.1-.3-.3-.4-.5,0-.4,0-.8,0-1.2.3-2,.9-4,1.4-5.9-.9,1.7-1.8,3.4-3,4.9-1.4,1.6-3.9,2.5-5.2.7-.4-.6-.6-1.4-.7-2.2,0-1.2,0-2.5.3-3.7.4-1.8,1.1-3.5,1.8-5.3,0-.3.4-.7.7-.9.4-.2,1.1-.2,1.5,0,.3.1.7.3.9.6,0,.2.2.6.2.9s-.2.9-.4,1.3c-.7,1.6-1.4,3.2-1.9,4.9-.2.6-.3,1.3-.4,1.9,0,1,.2,2.4,1.2,2,.2,0,.3-.1.5-.3.4-.3.8-.7,1.1-1.1.4-.5.7-1,1-1.5.6-1,3.4-5.6,3.7-6.6,0-.3.3-.5.7-.6.5-.1,1.7.1,2.1.5s.4,1.1.3,1.6c-.2,1-.6,2-.9,3-.6,1.9-1.1,3.9-1.5,5.8,0,.4-.2.9-.4,1.3,0,.3-.3.5-.5.7-.5.4-1.5.2-2.1-.3h0Z"/>
        <path class="cls-6" d="M112.8,25.7c-1.2-.7-1.4-2.4-.2-3.1.2-.1.5-.3.8-.4s.7-.1,1.1,0c.7.1,1.4.7,1.5,1.3,0,.6,0,1.1-.4,1.6-.6.9-1.8,1.1-2.8.6ZM113.8,20.1c-.2-.5,0-1.1,0-1.6.4-2.2.8-4.5,1.3-6.6.2-.9.6-3.3,1.4-3.8.7-.5,2.1-.2,2.8.4,1.1.8,0,2.9-.4,4-.2.6-1.7,4.6-1.9,5.3-.2.5-.8,2.4-1.1,2.8-.2.2-.5.4-.8.5-.6,0-1.3-.3-1.5-.9h0Z"/>
      </g>
    </g>
  </g>
</svg>