<?xml version="1.0" encoding="UTF-8"?>
<svg xmlns="http://www.w3.org/2000/svg" version="1.1" viewBox="0 0 164.1 128.8">
  <defs>
    <style>
      .cls-1 {
        fill: none;
        stroke: #000;
        stroke-linecap: round;
      }

      .cls-1, .cls-2 {
        stroke-width: 2px;
      }

      .cls-1, .cls-2, .cls-3 {
        stroke-miterlimit: 10;
      }

      .cls-4 {
        fill: #d85b5b;
      }

      .cls-5 {
        fill: #eca2c7;
      }

      .cls-6 {
        fill: #fff5d3;
      }

      .cls-7, .cls-3 {
        fill: #fff;
      }

      .cls-2 {
        fill: #f5b2b4;
      }

      .cls-2, .cls-3 {
        stroke: #1d1d1b;
      }

      .cls-3 {
        stroke-width: 3px;
      }
    </style>
  </defs>
  <!-- Generator: Adobe Illustrator 28.6.0, SVG Export Plug-In . SVG Version: 1.2.0 Build 709)  -->
  <g>
    <g id="Laag_1">
      <circle class="cls-6" cx="82" cy="81" r="47.8"/>
      <path class="cls-3" d="M111.7,53c.3-.8,1.6,3.5,1.9,5.4,1.1,7.4,1,14.8-1.6,21.9-.4,1-.3,1.8.2,2.8,3.9,6.3,2.6,13.5-1.7,19-3.9,5.1-9.2,8-15.3,9.5-10.2,2.5-20.2,2.2-30-1.6-5.5-2.1-9.9-5.6-12.7-10.8-2.8-5.3-3-10.8.3-16,.5-.9.6-1.7.2-2.6-2.2-5.7-2.6-11.6-2.1-17.6.2-2.2.6-4.4,1-6.6.2-.7.5-1.4.8-2.2.3-.6,1-.8,1.5-.3,1.5,1.3,2.8,2.5,4,3.9,2.5,3,4.9,6,7.1,9.2,1.5,2.2,3.1,3.3,5.9,2.6,3.5-.9,7.1-1.5,10.7-1.3,4.2.2,8.4.8,12.6,1.5,1.9.3,3.2-.2,4.2-1.6,1.8-2.4,3.5-4.9,5.3-7.3,2.2-2.8,4.5-5.5,7.5-7.5h0ZM63.5,85.2c0,2.4,1.8,4.5,4.1,4.6,2.7,0,4.8-1.8,4.9-4.3,0-2.5-1.9-4.6-4.3-4.7-2.5,0-4.5,1.8-4.6,4.5ZM92.7,85.3c0,2.6,1.8,4.5,4.3,4.5,2.5,0,4.5-1.9,4.6-4.3,0-2.7-1.8-4.7-4.3-4.7-2.5,0-4.5,2-4.5,4.6h0Z"/>
      <ellipse class="cls-7" cx="83.1" cy="88" rx="25.4" ry="12"/>
      <circle class="cls-5" cx="101.3" cy="96.3" r="3.4"/>
      <circle class="cls-5" cx="63.8" cy="96.3" r="3.4"/>
      <path class="cls-1" d="M65.1,83.1s.3-3.7,6.2-3.1"/>
      <path class="cls-2" d="M76.8,86.2c0,4.4,0,9.9.1,14.3,0,0,.2,5.4,5.4,5.4,0,0,5.4-.3,5.3-4.8,0-4.5-.2-14.6-.2-14.6-.6-.1-1.6-.3-2.7-.8-1.5-.6-1.8-1-2.7-1-1,0-1.2.6-2.6,1.1-1,.4-1.9.5-2.6.5h0Z"/>
      <path class="cls-1" d="M99.5,83.1s-.3-3.7-6.2-3.1"/>
      <path class="cls-1" d="M82.2,83.1c.9,1.9,2.8,3.1,4.8,2.8,2.2-.3,3.2-2.3,3.3-2.5"/>
      <path class="cls-1" d="M73.9,83.1c.9,1.9,2.8,3.1,4.8,2.8,2.2-.3,3.2-2.3,3.3-2.5"/>
      <path d="M68,71.1s-7.2,12.6-14.9,9.3c-1.6-5.7-1-24.2-1-24.2l2.3-2.5,13.6,17.5h0Z"/>
      <path class="cls-4" d="M6.2,29.5c-.3,0-.7-.2-.9-.5-.2-.3-.3-.7-.5-1.1-.5-1.6-3.3-11.5-3.7-13.2-.2-.8-.9-2.5-.2-3.1.3-.3.7-.4,1.2-.5.4,0,.8-.2,1.2,0,.2,0,.3.2.4.4.2.4.2.7.3,1.1.4-.6.9-1.2,1.5-1.6.5-.4,1.1-.6,1.8-.8.8-.2,1.8-.3,2.6-.1.6.1,1.2.4,1.6.8.5.4.9.9,1.2,1.3.8,1.2,1.2,2.6,1.3,4,0,1.3-.2,2.6-.8,3.8-.6,1.1-1.9,2-3.2,2.3-1.2.2-2.7,0-3.7-.7.2.8,1.7,5.2,1.9,5.9.1.4.2.9,0,1.2-.3.4-1.4.7-1.9.8h0ZM11.7,20.1c.8-.9,1.1-2.2,1.1-3.4,0-1.5-.5-3.2-1.5-4.4-.4-.4-.9-.9-1.4-1.1-.6-.2-1.4-.3-2.1-.1-1,.2-1.9.8-2.6,1.5-.4.5-.9,1.2-.9,1.6,0,1.3.6,4.1,1.3,5.4.3.5,1,1,1.7,1.3.7.3,1.6.4,2.4.3.8-.1,1.5-.6,2-1.1h0Z"/>
      <path class="cls-4" d="M19.4,26c-.3,0-.7-.2-.9-.5-.2-.3-.3-.7-.4-1.1-.5-1.6-2.7-11.6-3-13.4-.2-.8-.7-2.5,0-3.1.4-.4,1.1-.4,1.7-.5.3,0,.7,0,.9.2.2.2.3.5.3.8.2.7,1,5.3,1.1,6,.5,2.5,1.2,4.9,1.9,7.3.1.5.8,2.6.7,3.1,0,.2,0,.4-.2.5-.3.4-1.5.7-2,.6Z"/>
      <path class="cls-4" d="M33,23c-.2,0-.4-.2-.6-.4-.3-.3-.4-.7-.5-1.1-.3-1.3-.6-2.7-.8-4.1-.3,1.4-.5,2.7-1.1,4-.4.9-1,1.8-1.8,2.3-1.3.9-3.3.5-4.4-.7-1.2-1.4-1.8-3.3-1.8-5.1,0-1.4.4-2.8,1.2-3.9.5-.7,1.1-1.5,1.9-1.9.8-.5,1.9-.7,2.8-.6.8.1,1.6.4,2.4.9,0-.2-.2-1.4-.2-1.6,0-.2.2-.4.4-.6.4-.3,1.6-.6,2-.4.5.2.8.8.9,1.3.2,1,.3,2.1.4,3.1.2,2,.6,4,1,5.9,0,.4.2.9.2,1.3,0,.3,0,.6-.2.9-.3.6-1.4.8-2,.6h0ZM27.4,22.6c.5-.1.9-.5,1.3-.9.5-.5.8-1.2.9-1.9.5-2,.9-4.1,1.1-6.1-.8-.6-1.8-1.1-2.8-1-.5,0-.9.3-1.3.6-2,1.6-2,5.6-1.1,7.9.2.4.4.9.8,1.2.3.2.7.4,1.1.3h0Z"/>
      <path class="cls-4" d="M38.2,22.1c-.2,0-.4-.2-.6-.4-.3-.3-.3-.7-.4-1.1-.5-2.4-.8-4.9-1.1-7.3,0-.5-.5-2.9-.4-3.4,0-.2.2-.5.4-.6.5-.3,1.6-.5,2-.4.5.2.8.8.9,1.4.2,1,.2,2,.3,3,.2-.9.5-1.9,1-2.8.5-.8,1.1-1.6,2-2.1.6-.4,1.3-.7,2-.7s1.3.2,1.8.5c.8.5,1.4,1.2,1.7,2.1.4.9.5,1.9.6,2.9.3,1.8.5,3.7.4,5.6,0,.4,0,.8,0,1.1-.2,1-1.4,1.3-2.3.8-.2-.1-.5-.3-.6-.5-.2-.5-.3-1-.3-1.5,0-.7,0-1.5,0-2.2,0-1.5-.2-3-.4-4.5,0-.5-.2-1.1-.5-1.6-.1-.3-.3-.6-.6-.9-.2-.2-.6-.4-.9-.3-.4,0-.8.3-1.1.6-.6.6-1,1.4-1.2,2.2-.5,1.7-.8,3.5-.9,5.2h0c.2,1.1.5,2.2.5,3.2,0,.3,0,.6-.2.9-.4.6-1.4.7-2,.6h0Z"/>
      <path class="cls-4" d="M56.5,25c-1.1-.2-2-.6-2.9-1.3-.2-.2-.9-.8-1-1.1,0-.5.6-.8.9-.4.4.5.9,1,1.5,1.2.8.4,2,0,2.5-.8.4-.6.5-1.3.6-2,0-1.6-.2-3.2-.4-4.7-.2-2.2-.5-4.4-.7-6.6,0-.1,0-.3,0-.4,0-.4.4-.7.8-.8.6-.2,1.2-.2,1.8,0,.3.1.7.4.7.8,0,.8,0,1.6.1,2.5.2,2.9.9,5.9.7,8.9,0,1.1-.3,2.2-.9,3.1-.6.8-1.6,1.4-2.6,1.7-.3,0-.7,0-1.1,0h0ZM56.4,3.8c.5-1.3,2.3-1.6,3.2-.5.8.9.2,2.3-1,2.6-1.4.3-2.7-.9-2.2-2.1h0Z"/>
      <path class="cls-4" d="M65.8,18.9c-1.2-.6-2.3-1.7-2.8-3-.7-1.5-.8-3.4-.2-5,.7-2.3,3.1-4.1,5.7-4.4.8,0,1.6,0,2.3.2,3.1,1,4,4.6,2,7-.7.9-1.9,1.4-3,1.5-1.1.1-2.3.2-3.5,0,.3.9.9,1.8,1.6,2.4.5.4,1.2.7,1.8.7.7,0,1.4-.2,2-.6.2-.1.4-.2.6-.2.4,0,.4.6.1.8-.2.2-1.4.7-1.7.8-1.6.4-3.6.4-5.1-.3h0ZM69.8,14.3c.8-.1,1.5-.4,2-.9,1.3-1.2,1-3.6-.2-5-.4-.5-1.2-1.1-1.9-1.1-.6,0-1.3.4-1.8.8-.5.5-.9,1.1-1.2,1.7-.7,1.3-.8,2.9-.6,4.3,1.2.3,2.4.4,3.6.1Z"/>
      <path class="cls-4" d="M83.3,18.8c-.3,0-.7-.4-.8-.7-.1-.4-.1-.8-.2-1.2,0-1.7,0-12,.2-13.7,0-.8-.1-2.6.7-3C83.7,0,84.4,0,85,0c.3,0,.7.2.8.4.1.2.2.5.2.8,0,.8-.3,5.7-.3,6.5.7-.9,1.8-1.6,3-1.9.8-.2,1.7-.2,2.5,0,.6.2,1.2.6,1.7,1.1.7.7,1.2,1.5,1.4,2.3.3,1,.4,2,.4,3,0,1.5-.3,3.1-1.2,4.4-.4.6-.9,1.1-1.5,1.5-.7.4-1.6.5-2.4.5-1.3-.1-2.5-.6-3.6-1.2,0,.4-.1.8-.4,1-.4.3-1.6.3-2,.2h0ZM90.9,17.7c.5-.2.9-.5,1.3-1,.5-.6.8-1.4,1-2.1.3-1.1.3-2.3.2-3.5,0-.8-.3-1.6-.7-2.3s-1-1.4-1.8-1.7c-.7-.3-1.7-.3-2.5,0-.6.2-1.1.5-1.6.9-.5.5-1.2,1.2-1.3,1.8-.4,1.6-.4,5.7.2,6.7.3.5,2.1,1.1,3.2,1.3.6.1,1.3.1,1.9-.1Z"/>
      <path class="cls-4" d="M98.4,18.9c-1.2-.7-2.1-2-2.4-3.3-.5-1.6-.3-3.4.3-5,1-2.2,3.6-3.7,6.2-3.7.8,0,1.6.2,2.3.5,2.9,1.4,3.4,5,1.2,7.2-.8.8-2,1.1-3.1,1.1-1.2,0-2.3-.1-3.4-.5.2,1,.6,1.9,1.3,2.6.5.5,1.1.8,1.8.9.7.1,1.4,0,2.1-.3.2,0,.4-.1.6-.1.4.1.3.6,0,.8-.3.2-1.5.5-1.8.6-1.7.2-3.6,0-5-.9h0ZM102.9,14.8c.8,0,1.5-.2,2.1-.7,1.5-1.1,1.4-3.4.4-5-.4-.6-1-1.2-1.8-1.3-.6,0-1.3.2-1.8.6-.5.4-1,1-1.4,1.5-.8,1.2-1.2,2.8-1.1,4.2,1.1.4,2.4.6,3.6.6h0Z"/>
      <path class="cls-4" d="M108.6,19.8c-.2,0-.5-.1-.7-.3-.2-.2-.3-.5-.2-.8.9-1.9,2.1-3.5,3.4-5.1,1.4-1.7,3-3.4,4.8-4.9-1.8-.4-3.8-.7-5.7-.7-.3,0-.5,0-.8,0-.6-.2-.4-.9.2-.9,1.8,0,3.6,0,5.4.4.7.1,3.3.6,3.8,1.1.1,0,.2.3.3.4,0,.7-1.2,1.7-1.7,2.2-2.5,2.4-5.2,4.8-6.6,7.9.7,0,4.8.5,5.5.6.7.1.6,1-.1.9-2.6-.3-5.2-.4-7.7-.9h0Z"/>
      <path class="cls-4" d="M120.7,20.8c-.7-.7-1.2-1.7-1.4-2.7-.4-2.1,0-4.6,1.2-6.4.7-1,1.7-1.9,2.8-2.4,1.3-.5,3-.2,4.2.6.5.4,1,.9,1.3,1.5.6,1.1.9,2.4.8,3.5,0,1.5-.4,3-1.2,4.4-.5.8-1.1,1.6-2,2.1-.6.3-1.2.6-1.8.6-1.4.1-3-.4-4-1.3h0ZM125.4,20.8c.6-.2,1-.6,1.4-1,.7-.7,1.2-1.7,1.4-2.6.3-1.1.4-2.4.2-3.6-.2-1.4-1.2-3.2-2.7-3.3-1.4,0-2.7,1.9-3.2,3.1-.6,1.6-.8,3.4-.5,5,.1.6.4,1.1.8,1.6.3.3.7.6,1.1.7.4.1.9.1,1.3,0h0Z"/>
      <path class="cls-4" d="M132.7,23.1c-1.1-.9-1.8-2.2-2-3.6-.3-1.6,0-3.4,1-4.9,1.3-2,4-3.2,6.7-2.9.8.1,1.6.4,2.2.8,2.8,1.8,2.8,5.4.3,7.2-.9.7-2.1.9-3.3.8-1.1-.1-2.3-.4-3.4-.9,0,1,.4,2,1,2.8.4.5,1,.9,1.6,1.1.7.2,1.4.1,2.1,0,.2,0,.4,0,.6,0,.4.2.3.6,0,.8-.3.2-1.5.3-1.9.4-1.7,0-3.6-.5-4.9-1.5ZM137.6,19.6c.8,0,1.6,0,2.2-.4,1.6-.9,1.8-3.2,1.1-4.9-.3-.6-.9-1.3-1.6-1.5-.6-.2-1.4,0-1.9.4-.6.4-1.1.8-1.6,1.4-.9,1.1-1.5,2.6-1.7,4.1,1.1.6,2.3.9,3.5,1h0Z"/>
      <path class="cls-4" d="M143.5,25.8c-.3-.2-.6-.5-.6-.9,0-.4,0-.8.1-1.2.3-1.7,2.7-11.7,3.1-13.4.2-.8.4-2.6,1.3-2.8.5-.1,1.2,0,1.7.3.3,0,.6.3.7.6,0,.3,0,.6,0,.8-.8,3.1-1.8,6.2-2.4,9.3,2.7-1.2,5.4-2.2,8.1-3.4.7-.3,1.2.6.5.9-2,.9-4.1,1.7-6.1,2.5-.7.3-1.5.6-2.2,1,.4,1.5.9,3.1,1.8,4.4.5.7,1.3,1.2,2,1.7.4.2.9.4,1.4.4h.2c.5,0,.6.6.2.9-.3.2-1.2,0-1.5-.1-1.6-.5-3-1.9-3.8-3.3-.4-.9-.8-1.8-1-2.7-.1.5-.7,3.7-.8,4.2-.1.4-.3.9-.6,1-.5.2-1.6,0-2-.3h0Z"/>
      <path class="cls-4" d="M156.4,29c-1.2-.7-1.4-2.4-.2-3.1.2-.1.5-.3.8-.4.3-.1.8-.1,1.1,0,.7.1,1.4.7,1.6,1.3.1.6,0,1.1-.4,1.6-.6.9-1.9,1.1-2.8.6h0ZM157.3,23.4c-.1-.5,0-1.1.1-1.6.4-2.2.8-4.5,1.3-6.6.2-.9.6-3.3,1.4-3.8.7-.5,2.1-.1,2.8.4,1,.8,0,2.9-.4,4-.2.6-1.7,4.6-1.9,5.3-.2.5-.8,2.4-1.1,2.8-.2.2-.5.4-.8.5-.6,0-1.3-.3-1.5-.9h0Z"/>
    </g>
  </g>
</svg>