<?xml version="1.0" encoding="UTF-8"?>
<svg xmlns="http://www.w3.org/2000/svg" version="1.1" viewBox="0 0 120.5 127.7">
  <defs>
    <style>
      .cls-1 {
        fill: #d95a5b;
      }
    </style>
  </defs>
  <!-- Generator: Adobe Illustrator 28.6.0, SVG Export Plug-In . SVG Version: 1.2.0 Build 709)  -->
  <g>
    <g id="Laag_1">
      <g id="_x35_H8xYH">
        <g>
          <path class="cls-1" d="M22.4,96.7c.1-6.8,2.9-12.6,7.7-17.1,5.7-5.4,10.3-11.5,14.5-18,1.5-2.3,3.4-4.5,5.5-6.2,7.1-5.6,16.3-4.2,22.2,3.4,2,2.5,3.5,5.4,5.5,7.9,3.1,3.9,6.2,7.7,9.6,11.2,5.6,5.7,9.4,11.9,9.2,20.2-.3,9.4-9,16.7-18.3,15-3-.5-6-1.1-8.8-2.1-6.7-2.2-13.2-2.2-19.9,0-3.4,1.1-6.9,2-10.4,2.3-9.4.9-16.9-6.6-16.8-16.6Z"/>
          <path class="cls-1" d="M55.9,38.4c-.7,2.3-1.3,4.6-2.4,6.6-3,5.8-9.6,7.3-15.1,3.8-8.7-5.6-12-20.1-6.7-28.9,3.6-6,10.2-7.3,15.9-3.2,4.3,3.1,7.4,8.7,8.7,14.9s.2,4.6-.4,6.8Z"/>
          <path class="cls-1" d="M90,29.9c-.7,7.7-2.8,14.4-9.3,18.8-5.6,3.7-12,2.1-15.3-3.8-4.7-8.2-2.3-21.3,4.9-27.4,7.5-6.4,16.7-2.9,19,7.2.4,1.8.5,3.6.7,5.2Z"/>
          <path class="cls-1" d="M115.4,55.8c0,8.7-6.3,17.4-13.8,19.1-5.3,1.2-10.1-1.3-12.2-6.4-3.6-8.9,2-21.6,11-24.9,8.1-2.9,15,2.7,15,12.2Z"/>
          <path class="cls-1" d="M3.4,55.5c.3-1.6.4-3.3.9-4.8,2-6.6,8.2-9.5,14.7-6.9,8.7,3.6,14,15.6,10.7,24.4-2.2,5.8-7.9,8.3-13.8,6.2-7-2.5-12.3-10.6-12.5-18.9Z"/>
        </g>
      </g>
    </g>
  </g>
</svg>